<?xml version="1.0" encoding="iso-8859-1"?>
<!-- Generator: Adobe Illustrator 18.1.1, SVG Export Plug-In . SVG Version: 6.00 Build 0)  -->
<svg version="1.1" id="Capa_1" xmlns="http://www.w3.org/2000/svg" xmlns:xlink="http://www.w3.org/1999/xlink" x="0px" y="0px"
	 viewBox="0 0 60.86 60.86" style="enable-background:new 0 0 60.86 60.86;" xml:space="preserve">
<g>
	<g>
		<path style="fill:#010002;" d="M31.807,27.66c1.202,0.653,3.231,0.161,3.462-1.409c0.462-3.17,1.018-6.342,0.868-9.559
			c-0.142-3.024-4.854-3.038-4.712,0c0.087,1.868-0.076,3.707-0.311,5.544c-1.939-0.768-3.88-1.554-5.287-3.087
			C25.436,18.722,25,18.5,24.564,18.43c-1.236-0.717-3.058-0.731-4.279,0.101c-0.03,0.006-0.057,0.004-0.088,0.012
			c-3.032,0.728-6.071,1.067-9.188,1.094c-3.037,0.025-3.04,4.737,0,4.711c2.034-0.017,4.057-0.165,6.064-0.442
			c-1.542,2.967-3.047,5.953-4.433,8.997c-0.279,0.613-0.384,1.189-0.358,1.719c-0.108,0.248-0.192,0.521-0.221,0.84
			c-0.661,7.244-1.321,14.492-1.981,21.74c-0.304,3.338,4.874,3.812,5.177,0.475c0.451-4.947,0.902-9.896,1.353-14.846
			c0.339,4.188,0.68,8.373,1.018,12.562c0.272,3.344,5.453,2.922,5.183-0.42c-0.587-7.238-1.174-14.479-1.761-21.721
			c1.379-2.884,2.854-5.72,4.347-8.549C27.437,25.831,29.72,26.525,31.807,27.66z"/>
		<circle style="fill:#010002;" cx="26.4" cy="12.11" r="4.369"/>
		<path style="fill:#010002;" d="M37.956,10.355l14.173-6.123l-0.382-0.724c0.176-0.298,0.268-0.634,0.268-0.979
			c0-1.012-0.773-1.846-1.8-1.938L49.905,0L31.259,9.747l1.463,2.782l3.792-1.572l-0.043,27.961l-9.612,21.097l1.072,0.488
			l8.537-18.735l-0.025,17.001h-1.824v1.517h5.072v-1.517h-1.807l0.025-17.164l7.826,19.255l1.09-0.441l-8.912-21.934L37.956,10.355
			z"/>
	</g>
</g>
<g>
</g>
<g>
</g>
<g>
</g>
<g>
</g>
<g>
</g>
<g>
</g>
<g>
</g>
<g>
</g>
<g>
</g>
<g>
</g>
<g>
</g>
<g>
</g>
<g>
</g>
<g>
</g>
<g>
</g>
</svg>
