<svg height="496pt" viewBox="0 0 496 496" width="496pt" xmlns="http://www.w3.org/2000/svg"><path d="m400 376v64h-104v-37.359375c3.039062-2.640625 5.28125-6.242187 6.398438-10.320313l8.5625-31.28125c6.960937.882813 13.757812 2.480469 20.480468 4.722657l13.519532 4.476562c11.4375 3.839844 23.359374 5.761719 35.4375 5.761719 6.480468 0 12.960937-.558594 19.28125-1.761719zm0 0" fill="#ccd1d9"/><path d="m349.519531 292.71875c2.878907 2.882812 4.640625 6.882812 4.640625 11.28125 0 8.800781-7.121094 16-16 16h-16.160156l8.640625-32h7.519531c4.398438 0 8.398438 1.761719 11.359375 4.71875zm0 0" fill="#ccd1d9"/><path d="m284 288.480469-8.480469 31.519531h-25.359375c-8.800781 0-16.800781 3.601562-22.640625 9.359375l-1.359375-1.359375 30.640625-30.640625c6-6 14.160157-9.359375 22.640625-9.359375h2.71875zm0 0" fill="#e6e9ed"/><path d="m294.640625 249.199219-10.640625 39.28125-1.839844-.480469h-2.71875c-8.480468 0-16.640625 3.359375-22.640625 9.359375l-30.640625 30.640625-10.960937 11.039062c-3.199219 3.199219-7.519531 4.960938-12 4.960938-4.71875 0-8.960938-1.921875-12.078125-4.960938-3.042969-3.039062-4.960938-7.359374-4.960938-12 0-4.480468 1.839844-8.800781 5.039063-12l57.601562-57.679687c6-6 14.160157-9.359375 22.640625-9.359375h18.71875zm0 0" fill="#f0d0b4"/><path d="m296 240v-184h-184v-48h288v264l-.558594.800781-29.203125-19.441406c-5.199219-3.519531-11.4375-5.359375-17.757812-5.359375h-11.039063l15.4375-57.039062 8.5625-31.839844 12-44.402344c.480469-1.839844.71875-3.679688.71875-5.519531 0-11.679688-9.441406-21.199219-21.121094-21.199219h-2.640624c-9.519532 0-17.917969 6.398438-20.398438 15.679688l-11.121094 41.28125-8.640625 31.757812-17.199219 63.601562zm0 0" fill="#ccd1d9"/><path d="m296 240 1.039062.320312-2.398437 8.878907-4.480469-1.199219h-18.71875c-8.480468 0-16.640625 3.359375-22.640625 9.359375l-57.601562 57.679687c-3.199219 3.199219-5.039063 7.519532-5.039063 12 0 4.640626 1.917969 8.960938 4.960938 12 3.117187 3.039063 7.359375 4.960938 12.078125 4.960938 4.480469 0 8.800781-1.761719 12-4.960938l10.960937-11.039062 1.359375 1.359375c-5.757812 5.839844-9.359375 13.839844-9.359375 22.640625 0 4.398438 3.601563 8 8 8h38.558594l-5.757812 21.28125c-.480469 1.839844-.800782 3.679688-.800782 5.519531 0 11.679688 9.519532 21.199219 21.199219 21.199219h2.640625c5.28125 0 10.238281-2 14-5.359375v85.359375h-288v-432h288zm0 0" fill="#e6e9ed"/><path d="m40 88h192v64h-192zm0 0" fill="#b4dd7f"/><path d="m96 352h24v80h-80v-80zm0 0" fill="#ff826e"/><path d="m96 216h24v80h-80v-80zm0 0" fill="#ff826e"/><path d="m378.160156 109.199219c0 1.839843-.238281 3.679687-.71875 5.519531l-12 44.402344-42.5625-14.160156 11.121094-41.28125c2.480469-9.28125 10.878906-15.679688 20.398438-15.679688h2.640624c11.679688 0 21.121094 9.519531 21.121094 21.199219zm0 0" fill="#ffeaa7"/><path d="m365.441406 159.121094-8.5625 31.839844-42.640625-14.242188 8.640625-31.757812zm0 0" fill="#e6e9ed"/><path d="m296 402.640625c-3.761719 3.359375-8.71875 5.359375-14 5.359375h-2.640625c-11.679687 0-21.199219-9.519531-21.199219-21.199219 0-1.839843.320313-3.679687.800782-5.519531l5.757812-21.28125h31.28125c5.039062 0 10 .320312 14.960938 1.039062l-8.5625 31.28125c-1.117188 4.078126-3.359376 7.679688-6.398438 10.320313zm0 0" fill="#fcd770"/><path d="m341.441406 248-19.441406 72h-46.480469l8.480469-31.519531 10.640625-39.28125 2.398437-8.878907 17.199219-63.601562 42.640625 14.242188zm0 0" fill="#fcd770"/><path d="m310.960938 361.039062c-4.960938-.71875-9.921876-1.039062-14.960938-1.039062h-69.839844c-4.398437 0-8-3.601562-8-8 0-8.800781 3.601563-16.800781 9.359375-22.640625 5.839844-5.757813 13.839844-9.359375 22.640625-9.359375h88c8.878906 0 16-7.199219 16-16 0-4.398438-1.761718-8.398438-4.640625-11.28125-2.960937-2.957031-6.960937-4.71875-11.359375-4.71875h-7.519531l10.800781-40h11.039063c6.320312 0 12.558593 1.839844 17.757812 5.359375l29.203125 19.441406 26.71875 17.839844c5.199219 3.519531 11.441406 5.359375 17.761719 5.359375h52.078125v64h-24c-9.199219 0-18.320312 1.121094-27.199219 3.359375l-37.199219 9.28125c-2.640624.640625-5.28125 1.199219-7.921874 1.597656-6.320313 1.203125-12.800782 1.761719-19.28125 1.761719-12.078126 0-24-1.921875-35.4375-5.761719l-13.519532-4.476562c-6.722656-2.242188-13.519531-3.839844-20.480468-4.722657zm0 0" fill="#f0d0b4"/><path d="m352.503906 256c4.753906 0 9.351563 1.390625 13.3125 4.03125l55.871094 37.25c6.601562 4.390625 14.273438 6.71875 22.191406 6.71875h52.121094v-16h-52.113281c-4.75 0-9.359375-1.390625-13.320313-4.03125l-22.566406-15.046875v-268.921875h-304v48h-104v448h304v-48h104v-67.304688c.503906-.121093 1.023438-.160156 1.527344-.289062l37.207031-9.300781c8.265625-2.058594 16.761719-3.105469 25.265625-3.105469h24v-16h-24c-9.808594 0-19.617188 1.207031-29.136719 3.585938l-37.214843 9.300781c-19.136719 4.785156-39.480469 4-58.183594-2.230469l-13.480469-4.496094c-12.265625-4.089844-25.046875-6.160156-37.984375-6.160156h-69.808594c0-13.230469 10.769532-24 24-24h88c13.234375 0 24-10.769531 24-24 0-12.273438-9.296875-22.304688-21.191406-23.71875l6.566406-24.28125zm-10.105468 121.832031c12.273437 4.097657 25.058593 6.167969 37.992187 6.167969 3.882813 0 7.753906-.335938 11.609375-.710938v48.710938h-88v-26.167969c2.808594-3.238281 4.984375-7.070312 6.152344-11.40625l6.550781-24.265625c4.121094.839844 8.207031 1.839844 12.21875 3.183594zm-41.726563-9.648437-5.960937 22.0625c-1.550782 5.746094-6.789063 9.753906-12.734376 9.753906h-2.59375c-7.269531 0-13.183593-5.910156-13.183593-13.183594 0-1.167968.152343-2.320312.457031-3.441406l4.152344-15.375h25.191406c1.558594 0 3.113281.121094 4.671875.183594zm-46.441406-.183594-3.023438 11.191406c-.671875 2.480469-1.007812 5.039063-1.007812 7.625 0 10.816406 5.984375 20.167969 14.746093 25.207032l-2.511718 10.03125 15.519531 3.882812 2.488281-9.9375h1.535156c2.0625 0 4.0625-.289062 6.023438-.703125v64.703125h-272v-416h104v-48h272v242.257812l-17.304688-11.539062c-6.597656-4.390625-14.269531-6.71875-22.191406-6.71875h-.617187l33.296875-123.191406c.671875-2.480469 1.007812-5.039063 1.007812-7.625 0-16.09375-13.09375-29.183594-29.183594-29.183594h-2.59375c-13.15625 0-24.742187 8.871094-28.175781 21.574219l-22.238281 82.289062v-135.863281h-168v16h152v176h-16.542969c-8.714843 0-16.914062 2.886719-23.769531 8h-79.6875v16h62.878906l-16 16h-46.878906v16h30.886719l-13.367188 13.367188c-4.71875 4.710937-7.320312 10.984374-7.320312 17.664062 0 13.769531 11.199219 24.96875 24.976562 24.96875 2.464844 0 4.839844-.472656 7.144531-1.160156-.007812.390625-.121093.761718-.121093 1.160156 0 8.824219 7.175781 16 16 16zm61.625-56h-29.910157l33.78125-124.992188 27.441407 9.144532zm-61.375-48.976562c4.527343-4.527344 10.558593-7.023438 16.976562-7.023438h13.046875l-6.527344 24.144531c-10.128906.367188-19.609374 4.367188-26.808593 11.566407l-41.65625 41.65625c-1.671875 1.671874-3.984375 2.632812-6.34375 2.632812-4.953125 0-8.976563-4.023438-8.976563-8.96875 0-2.398438.9375-4.648438 2.632813-6.34375zm8 40c3.078125-3.078126 6.871093-5.128907 10.984375-6.183594l-4.097656 15.160156h-15.855469zm107.253906-190.390626-9.796875 36.246094-27.441406-9.144531 9.183594-33.980469c1.558593-5.746094 6.792968-9.753906 12.734374-9.753906h2.59375c7.273438 0 13.183594 5.910156 13.183594 13.183594 0 1.167968-.152344 2.320312-.457031 3.449218zm-41.414063 42.574219 27.441407 9.144531-4.417969 16.328126-27.441406-9.144532zm9.871094 140.792969c4.410156 0 8 3.59375 8 8s-3.589844 8-8 8h-5.765625l4.328125-16zm0 0"/><path d="m240 80h-208v80h208zm-16 64h-176v-48h176zm0 0"/><path d="m64 112h16v16h-16zm0 0"/><path d="m96 112h16v16h-16zm0 0"/><path d="m128 112h16v16h-16zm0 0"/><path d="m160 112h16v16h-16zm0 0"/><path d="m192 112h16v16h-16zm0 0"/><path d="m128 256h-16v32h-64v-64h48v-16h-64v96h96zm0 0"/><path d="m154.34375 178.34375-74.34375 74.34375-10.34375-10.34375-11.3125 11.3125 21.65625 21.65625 85.65625-85.65625zm0 0"/><path d="m112 424h-64v-64h48v-16h-64v96h96v-48h-16zm0 0"/><path d="m69.65625 378.34375-11.3125 11.3125 21.65625 21.65625 85.65625-85.65625-11.3125-11.3125-74.34375 74.34375zm0 0"/><path d="m256 440h16v16h-16zm0 0"/><path d="m152 440h88v16h-88zm0 0"/><path d="m168 216h104v16h-104zm0 0"/></svg>